<svg width="64" height="64" viewBox="0 0 64 64" fill="none" xmlns="http://www.w3.org/2000/svg">
<circle cx="32" cy="32" r="32" fill="#4F4F4F"/>
<path d="M38.6283 31.8132L38.6286 31.8136C38.6362 31.8228 38.65 31.8434 38.6618 31.8781C38.6736 31.9126 38.6812 31.9545 38.6812 32C38.6812 32.0456 38.6736 32.0875 38.6618 32.122C38.65 32.1567 38.6362 32.1773 38.6286 32.1865L38.6283 32.1869L29.1607 43.6621C29.1602 43.6536 29.1599 43.6449 29.1599 43.6358C29.1599 43.5368 29.194 43.4716 29.2126 43.449C29.2126 43.449 29.2126 43.449 29.2126 43.449L38.1346 32.6365L38.6597 32L38.1346 31.3636L29.2126 20.5511C29.2126 20.5511 29.2126 20.5511 29.2126 20.5511C29.2049 20.5418 29.1911 20.5211 29.1793 20.4864L28.233 20.8098L29.1793 20.4864C29.1675 20.4518 29.1599 20.4099 29.1599 20.3643C29.1599 20.3554 29.1602 20.3466 29.1608 20.338L38.6283 31.8132Z" fill="white" stroke="white"/>
</svg>
