<svg width="64" height="64" viewBox="0 0 64 64" fill="none" xmlns="http://www.w3.org/2000/svg">
<circle cx="32" cy="32" r="32" transform="rotate(-180 32 32)" fill="#4F4F4F"/>
<path d="M25.3717 32.1868L25.3713 32.1864C25.3637 32.1772 25.35 32.1566 25.3381 32.1219C25.3263 32.0874 25.3187 32.0455 25.3187 32C25.3187 31.9544 25.3263 31.9125 25.3381 31.878C25.35 31.8433 25.3637 31.8227 25.3713 31.8135L25.3717 31.8131L34.8392 20.3379C34.8397 20.3464 34.84 20.3551 34.84 20.3642C34.84 20.4632 34.8059 20.5284 34.7874 20.551C34.7874 20.551 34.7874 20.551 34.7873 20.551L25.8654 31.3635L25.3402 32L25.8654 32.6364L34.7873 43.4489C34.7873 43.4489 34.7874 43.4489 34.7874 43.4489C34.795 43.4582 34.8088 43.4789 34.8206 43.5136L35.7669 43.1902L34.8206 43.5136C34.8325 43.5482 34.84 43.5901 34.84 43.6357C34.84 43.6446 34.8397 43.6534 34.8392 43.662L25.3717 32.1868Z" fill="white" stroke="white"/>
</svg>
