<svg width="96" height="96" viewBox="0 0 96 96" fill="none" xmlns="http://www.w3.org/2000/svg">
<circle cx="48" cy="48" r="47.5" fill="white" stroke="#0E2F3C"/>
<path d="M58.3282 47.4015L58.3286 47.4019C58.3808 47.4651 58.43 47.5499 58.466 47.6552L59.4122 47.3316L58.466 47.6552C58.5019 47.7604 58.5219 47.878 58.5219 48C58.5219 48.1219 58.5019 48.2395 58.466 48.3447C58.43 48.45 58.3808 48.5348 58.3286 48.598L58.3282 48.5984L43.9282 66.0521C43.8241 66.1782 43.7288 66.2 43.6808 66.2C43.6328 66.2 43.5375 66.1782 43.4333 66.0521C43.3247 65.9204 43.24 65.7071 43.24 65.4536C43.24 65.2001 43.3247 64.9869 43.4333 64.8552C43.4333 64.8552 43.4333 64.8552 43.4333 64.8552L56.8163 48.6364L57.3415 48L56.8163 47.3635L43.4333 31.1447C43.3811 31.0814 43.3319 30.9965 43.2959 30.8912C43.26 30.786 43.24 30.6683 43.24 30.5463C43.24 30.4243 43.26 30.3066 43.2959 30.2014C43.3319 30.096 43.3811 30.0111 43.4333 29.9478C43.4853 29.8848 43.5367 29.8474 43.5781 29.8266C43.6185 29.8063 43.6527 29.7999 43.6808 29.7999C43.7088 29.7999 43.743 29.8063 43.7835 29.8266C43.8249 29.8474 43.8762 29.8848 43.9282 29.9478L58.3282 47.4015Z" fill="#0E2F3C" stroke="#0E2F3C"/>
</svg>
