<svg width="128" height="128" viewBox="0 0 128 128" fill="none" xmlns="http://www.w3.org/2000/svg">
<path d="M120 104H116V36C116 34.9391 115.579 33.9217 114.828 33.1716C114.078 32.4214 113.061 32 112 32H92V20C92 18.9391 91.5786 17.9217 90.8284 17.1716C90.0783 16.4214 89.0609 16 88 16H40C38.9391 16 37.9217 16.4214 37.1716 17.1716C36.4214 17.9217 36 18.9391 36 20V48H16C14.9391 48 13.9217 48.4214 13.1716 49.1716C12.4214 49.9217 12 50.9391 12 52V104H8C6.93913 104 5.92172 104.421 5.17157 105.172C4.42143 105.922 4 106.939 4 108C4 109.061 4.42143 110.078 5.17157 110.828C5.92172 111.579 6.93913 112 8 112H120C121.061 112 122.078 111.579 122.828 110.828C123.579 110.078 124 109.061 124 108C124 106.939 123.579 105.922 122.828 105.172C122.078 104.421 121.061 104 120 104ZM40 88H32C30.9391 88 29.9217 87.5786 29.1716 86.8284C28.4214 86.0783 28 85.0609 28 84C28 82.9391 28.4214 81.9217 29.1716 81.1716C29.9217 80.4214 30.9391 80 32 80H40C41.0609 80 42.0783 80.4214 42.8284 81.1716C43.5786 81.9217 44 82.9391 44 84C44 85.0609 43.5786 86.0783 42.8284 86.8284C42.0783 87.5786 41.0609 88 40 88ZM40 72H32C30.9391 72 29.9217 71.5786 29.1716 70.8284C28.4214 70.0783 28 69.0609 28 68C28 66.9391 28.4214 65.9217 29.1716 65.1716C29.9217 64.4214 30.9391 64 32 64H40C41.0609 64 42.0783 64.4214 42.8284 65.1716C43.5786 65.9217 44 66.9391 44 68C44 69.0609 43.5786 70.0783 42.8284 70.8284C42.0783 71.5786 41.0609 72 40 72ZM72 104H56V84H72V104ZM68 72H60C58.9391 72 57.9217 71.5786 57.1716 70.8284C56.4214 70.0783 56 69.0609 56 68C56 66.9391 56.4214 65.9217 57.1716 65.1716C57.9217 64.4214 58.9391 64 60 64H68C69.0609 64 70.0783 64.4214 70.8284 65.1716C71.5786 65.9217 72 66.9391 72 68C72 69.0609 71.5786 70.0783 70.8284 70.8284C70.0783 71.5786 69.0609 72 68 72ZM68 56H60C58.9391 56 57.9217 55.5786 57.1716 54.8284C56.4214 54.0783 56 53.0609 56 52C56 50.9391 56.4214 49.9217 57.1716 49.1716C57.9217 48.4214 58.9391 48 60 48H68C69.0609 48 70.0783 48.4214 70.8284 49.1716C71.5786 49.9217 72 50.9391 72 52C72 53.0609 71.5786 54.0783 70.8284 54.8284C70.0783 55.5786 69.0609 56 68 56ZM68 40H60C58.9391 40 57.9217 39.5786 57.1716 38.8284C56.4214 38.0783 56 37.0609 56 36C56 34.9391 56.4214 33.9217 57.1716 33.1716C57.9217 32.4214 58.9391 32 60 32H68C69.0609 32 70.0783 32.4214 70.8284 33.1716C71.5786 33.9217 72 34.9391 72 36C72 37.0609 71.5786 38.0783 70.8284 38.8284C70.0783 39.5786 69.0609 40 68 40ZM96 88H88C86.9391 88 85.9217 87.5786 85.1716 86.8284C84.4214 86.0783 84 85.0609 84 84C84 82.9391 84.4214 81.9217 85.1716 81.1716C85.9217 80.4214 86.9391 80 88 80H96C97.0609 80 98.0783 80.4214 98.8284 81.1716C99.5786 81.9217 100 82.9391 100 84C100 85.0609 99.5786 86.0783 98.8284 86.8284C98.0783 87.5786 97.0609 88 96 88ZM96 72H88C86.9391 72 85.9217 71.5786 85.1716 70.8284C84.4214 70.0783 84 69.0609 84 68C84 66.9391 84.4214 65.9217 85.1716 65.1716C85.9217 64.4214 86.9391 64 88 64H96C97.0609 64 98.0783 64.4214 98.8284 65.1716C99.5786 65.9217 100 66.9391 100 68C100 69.0609 99.5786 70.0783 98.8284 70.8284C98.0783 71.5786 97.0609 72 96 72ZM96 56H88C86.9391 56 85.9217 55.5786 85.1716 54.8284C84.4214 54.0783 84 53.0609 84 52C84 50.9391 84.4214 49.9217 85.1716 49.1716C85.9217 48.4214 86.9391 48 88 48H96C97.0609 48 98.0783 48.4214 98.8284 49.1716C99.5786 49.9217 100 50.9391 100 52C100 53.0609 99.5786 54.0783 98.8284 54.8284C98.0783 55.5786 97.0609 56 96 56Z" fill="#E09F3E"/>
</svg>
