<svg width="48" height="48" viewBox="0 0 48 48" fill="none" xmlns="http://www.w3.org/2000/svg">
<path d="M40.5918 19.5919L25.5918 34.5919C25.3828 34.8016 25.1344 34.9681 24.8609 35.0816C24.5874 35.1952 24.2942 35.2537 23.998 35.2537C23.7019 35.2537 23.4087 35.1952 23.1352 35.0816C22.8617 34.9681 22.6133 34.8016 22.4043 34.5919L7.40429 19.5919C6.9816 19.1692 6.74414 18.5959 6.74414 17.9981C6.74414 17.4004 6.9816 16.8271 7.40429 16.4044C7.82698 15.9817 8.40027 15.7442 8.99804 15.7442C9.59582 15.7442 10.1691 15.9817 10.5918 16.4044L23.9999 29.8125L37.408 16.4025C37.8307 15.9798 38.404 15.7423 39.0018 15.7423C39.5996 15.7423 40.1729 15.9798 40.5955 16.4025C41.0182 16.8252 41.2557 17.3985 41.2557 17.9963C41.2557 18.594 41.0182 19.1673 40.5955 19.59L40.5918 19.5919Z" fill="#828282"/>
</svg>
