<svg width="128" height="128" viewBox="0 0 128 128" fill="none" xmlns="http://www.w3.org/2000/svg">
<path d="M84 64C84 67.9556 82.827 71.8224 80.6294 75.1114C78.4318 78.4004 75.3082 80.9638 71.6537 82.4776C67.9991 83.9913 63.9778 84.3874 60.0982 83.6157C56.2186 82.844 52.6549 80.9392 49.8579 78.1421C47.0608 75.3451 45.156 71.7814 44.3843 67.9018C43.6126 64.0222 44.0087 60.0009 45.5224 56.3463C47.0362 52.6918 49.5996 49.5682 52.8886 47.3706C56.1776 45.173 60.0444 44 64 44C69.3043 44 74.3914 46.1071 78.1421 49.8579C81.8929 53.6086 84 58.6957 84 64ZM124 32V96C124 97.0609 123.579 98.0783 122.828 98.8284C122.078 99.5786 121.061 100 120 100H8C6.93913 100 5.92172 99.5786 5.17157 98.8284C4.42143 98.0783 4 97.0609 4 96V32C4 30.9391 4.42143 29.9217 5.17157 29.1716C5.92172 28.4214 6.93913 28 8 28H120C121.061 28 122.078 28.4214 122.828 29.1716C123.579 29.9217 124 30.9391 124 32ZM116 55.175C111.458 53.832 107.324 51.374 103.975 48.0249C100.626 44.6758 98.168 40.542 96.825 36H31.175C29.832 40.542 27.374 44.6758 24.0249 48.0249C20.6758 51.374 16.542 53.832 12 55.175V72.825C16.542 74.168 20.6758 76.626 24.0249 79.9751C27.374 83.3242 29.832 87.458 31.175 92H96.825C98.168 87.458 100.626 83.3242 103.975 79.9751C107.324 76.626 111.458 74.168 116 72.825V55.175Z" fill="#0E2F3C"/>
</svg>
