<svg width="79" height="92" viewBox="0 0 79 92" fill="none" xmlns="http://www.w3.org/2000/svg">
<path d="M1.44962 81.421L13.372 79.3898L17.5486 90.583L39.2366 53.555L23.1375 44.3929L1.44962 81.421Z" fill="#FFFFB6"/>
<path d="M76.7515 81.4214L64.8291 79.3902L60.6523 90.5834L38.9643 53.5554L55.0635 44.3933L76.7515 81.4214Z" fill="#FFFFB6"/>
<path d="M8.92563 20.9021L18.3727 18.1062L17.8814 8.39538L27.5645 10.2474L31.7078 1.42407L39.4085 7.49964L47.2369 1.58453L51.1914 10.492L60.9118 8.84064L60.2136 18.5392L69.5992 21.5296L64.4087 29.7975L71.3093 36.7451L62.8153 41.6879L65.6501 51.0007L55.7986 51.4866L53.9182 61.0312L44.9661 56.9487L38.8011 64.5387L32.7991 56.8228L23.7619 60.7191L22.0852 51.1378L12.2462 50.4482L15.2786 41.1963L6.892 36.0785L13.9388 29.2753L8.92563 20.9021Z" fill="#E09F3E"/>
<path d="M39.1002 52.8343C50.2226 52.8343 59.2391 43.9466 59.2391 32.9831C59.2391 22.0195 50.2226 13.1318 39.1002 13.1318C27.9778 13.1318 18.9613 22.0195 18.9613 32.9831C18.9613 43.9466 27.9778 52.8343 39.1002 52.8343Z" fill="#365764"/>
<path d="M43.748 48.2535C32.6256 48.2535 23.6091 39.3656 23.6091 28.4022C23.6091 24.0897 25.0049 20.0991 27.3743 16.8435C22.2806 20.4457 18.9616 26.3322 18.9616 32.9833C18.9616 43.9469 27.9781 52.8346 39.1005 52.8346C45.848 52.8346 51.8199 49.5632 55.4743 44.542C52.1715 46.8776 48.123 48.2535 43.748 48.2535Z" fill="#5E7F8C"/>
<path d="M34.4532 22.2941L36.0023 26.8752L40.6498 29.9291L43.748 36.0372L45.2971 29.9291V25.348L49.9446 20.7669L52.5446 18.204C48.9794 15.0507 44.2677 13.1318 39.1005 13.1318C34.7388 13.1318 30.7015 14.4991 27.4042 16.8217L29.8055 20.7669L34.4532 22.2941Z" fill="#27AE60"/>
<path d="M58.7892 28.796L53.0429 29.9289L51.4938 37.564L54.592 42.1451L55.9242 43.896C58.019 40.7644 59.2393 37.0145 59.2393 32.9829C59.2395 31.5463 59.0833 30.1458 58.7892 28.796Z" fill="#27AE60"/>
<path d="M39.1005 40.618L34.453 36.0369L26.7073 34.5099L22.0598 28.4019L19.2706 29.5017C19.0679 30.6321 18.9616 31.7952 18.9616 32.983C18.9616 40.8588 23.6144 47.6632 30.3584 50.8711L37.5513 45.199L39.1005 40.618Z" fill="#27AE60"/>
<path d="M23.7327 30.6001L22.06 28.4019L19.2707 29.5017C19.068 30.6321 18.9618 31.7952 18.9618 32.983C18.9618 40.8588 23.6145 47.6632 30.3586 50.8711L35.7462 46.6226C29.2553 43.8493 24.5382 37.8058 23.7327 30.6001Z" fill="#27AE60"/>
<path d="M78.0093 80.7063L71.0536 68.8312C70.6524 68.1466 69.7641 67.9117 69.0697 68.3072C68.3752 68.7025 68.1371 69.5781 68.5382 70.2628L73.9433 79.4911L65.0763 77.9805C64.3838 77.8628 63.708 78.2486 63.4659 78.8971L60.3595 87.2216L44.4525 60.0636C44.4308 60.0267 44.4071 59.9919 44.383 59.9574L45.3884 58.7195L53.3078 62.331C54.1509 62.7159 55.1666 62.2015 55.3434 61.3048L57.0072 52.861L58.5082 52.787C58.5135 53.0197 65.9918 65.9151 65.9918 65.9151C66.4187 66.6439 67.4224 66.851 68.1114 66.3517C68.6995 65.9253 68.8721 65.1063 68.5074 64.4833L61.5679 52.6358L65.7225 52.431C66.6484 52.3854 67.3077 51.4664 67.041 50.5898L64.5333 42.3511L72.0474 37.9781C72.8461 37.5134 72.9963 36.3975 72.347 35.7437L66.2422 29.5977L70.8343 22.2835C71.323 21.5049 70.9276 20.4489 70.0459 20.1681L61.7426 17.5224L62.3602 8.94249C62.4258 8.03112 61.5796 7.27428 60.6649 7.43043L52.0655 8.89146L48.5673 1.0113C48.196 0.174495 47.0906 -0.107793 46.3532 0.449056L39.4275 5.68189L32.6149 0.306924C31.8899 -0.265558 30.7785 -0.00537145 30.3893 0.823164L26.7238 8.62912L18.1576 6.99055C17.2465 6.81626 16.3843 7.55423 16.4306 8.46722L16.8654 17.058L8.50769 19.5314C7.6203 19.794 7.20213 20.8415 7.67444 21.6302L12.1094 29.0379L5.87523 35.0564C5.21224 35.6966 5.33857 36.8153 6.12716 37.2963L13.5464 41.8239L10.8636 50.0086C10.578 50.8796 11.2178 51.8118 12.1424 51.8767L16.8823 52.2089L12.5507 59.6046C12.186 60.2272 12.3584 61.0464 12.9467 61.473C13.6357 61.9724 14.6394 61.7652 15.0663 61.0364C15.0663 61.0364 19.9663 52.5985 19.9927 52.427L20.8466 52.4871L22.3301 60.9634C22.4876 61.8637 23.4922 62.3986 24.3431 62.0318L32.3378 58.5847L33.6374 60.2555C33.6303 60.267 33.6221 60.2776 33.6151 60.2894L17.8402 87.2218L14.734 78.8971C14.4919 78.2484 13.8147 77.8628 13.1237 77.9805L4.25668 79.4911L11.9756 66.3122C12.3766 65.6276 12.1386 64.7519 11.444 64.3566C10.749 63.961 9.86102 64.196 9.46016 64.8806L0.190684 80.7065C-0.41361 81.7384 0.508234 83.034 1.69568 82.8331L12.4255 81.0051L16.1845 91.0787C16.6008 92.1942 18.2017 92.3312 18.8053 91.3003L35.5492 62.7134L37.6474 65.4107C38.2123 66.1364 39.3533 66.149 39.9337 65.4344L42.4382 62.3513L59.3941 91.3001C59.9975 92.3306 61.5986 92.1941 62.0149 91.0786L65.7739 81.005L76.5037 82.8329C77.6915 83.0345 78.6137 81.7383 78.0093 80.7063ZM38.8257 62.2185L33.9515 55.9527C33.6696 55.5906 33.2396 55.3921 32.7983 55.3921C32.6027 55.3921 32.4047 55.4312 32.2168 55.5121L24.8779 58.6764L23.5162 50.8954C23.4028 50.2464 22.8545 49.7576 22.1882 49.7109L14.1979 49.1506L16.6606 41.6372C16.8661 41.0106 16.6112 40.3264 16.043 39.9798L9.2323 35.8236L14.9553 30.2988C15.4327 29.8379 15.5295 29.1156 15.1897 28.5485L11.1183 21.7484L18.7902 19.4779C19.4302 19.2885 19.8566 18.6932 19.823 18.0354L19.424 10.1493L27.2875 11.6534C27.9428 11.7787 28.601 11.447 28.8821 10.8495L32.247 3.68378L38.5007 8.61798C39.0222 9.02946 39.7618 9.03701 40.2917 8.63648L46.6493 3.83292L49.8607 11.0666C50.1285 11.6698 50.7792 12.0153 51.4379 11.9034L59.332 10.5622L58.765 18.4384C58.7178 19.0953 59.1314 19.6993 59.7671 19.9018L67.3888 22.3304L63.1734 29.0448C62.8219 29.6049 62.9032 30.329 63.3706 30.7998L68.9746 36.4418L62.0769 40.456C61.5014 40.7907 61.2322 41.4694 61.4241 42.1001L63.7261 49.6629L55.7259 50.0575C55.0585 50.0904 54.5003 50.568 54.3729 51.2143L52.8457 58.9655L45.5758 55.6501C44.9693 55.3732 44.2498 55.5403 43.8321 56.0546L38.8257 62.2185Z" fill="black"/>
<path d="M60.6916 32.9815C60.6916 21.2462 51.0058 11.6987 39.1004 11.6987C27.195 11.6987 17.5091 21.2462 17.5091 32.9815C17.5091 44.7169 27.195 54.2644 39.1004 54.2644C51.0058 54.2644 60.6916 44.7167 60.6916 32.9815ZM55.7687 41.3023L53.0358 37.2617L54.277 31.1439L57.6147 30.4859C57.7274 31.3022 57.7868 32.135 57.7868 32.9814C57.787 35.9739 57.0587 38.8018 55.7687 41.3023ZM50.3829 18.3083L44.2699 24.3339C43.9976 24.6024 43.8447 24.9664 43.8447 25.3461V29.751L43.2912 31.9336L41.9485 29.2868C41.8355 29.064 41.6654 28.8739 41.455 28.7359L37.2224 25.9542L35.8306 21.839C35.6859 21.4115 35.3457 21.076 34.9122 20.9336L30.7744 19.5739L29.3677 17.2626C32.2041 15.5496 35.5373 14.5611 39.1004 14.5611C43.3355 14.5619 47.2455 15.9587 50.3829 18.3083ZM20.4139 32.9815C20.4139 32.1489 20.4712 31.3293 20.5806 30.5258L21.566 30.1373L25.5456 35.3674C25.76 35.6492 26.0722 35.8432 26.4226 35.9122L33.737 37.3542L37.4386 41.0033L36.309 44.3439L30.19 49.1688C24.3713 46.0444 20.4139 39.9599 20.4139 32.9815ZM39.1004 51.4011C37.0401 51.4011 35.0573 51.0699 33.2024 50.4602L38.4583 46.3156C38.6769 46.1432 38.8404 45.9122 38.9288 45.6504L40.4779 41.0692C40.6518 40.5548 40.516 39.9877 40.127 39.6043L35.4795 35.0231C35.2766 34.8233 35.0185 34.687 34.7372 34.6316L27.5357 33.2119L23.2214 27.5414C22.8273 27.0235 22.1291 26.8309 21.5203 27.0713L21.3821 27.1259C22.4766 23.9167 24.4453 21.1003 27.0074 18.9512L28.56 21.5019C28.7384 21.795 29.0171 22.0154 29.3462 22.1234L33.3046 23.424L34.624 27.3259C34.7261 27.6281 34.9276 27.8878 35.1963 28.0644L39.5227 30.9078L42.4485 36.6757C42.7219 37.2146 43.3273 37.5319 43.9331 37.455C44.5195 37.3806 45.0128 36.9483 45.1562 36.3827L46.7054 30.2746C46.734 30.161 46.7487 30.0444 46.7487 29.9274V25.9393L52.5565 20.2146C54.5907 22.2972 56.1331 24.8493 56.9988 27.6874L52.7576 28.5235C52.1826 28.6369 51.7333 29.08 51.6183 29.6466L50.0692 37.2816C49.9937 37.6538 50.0713 38.0406 50.2848 38.3565L53.383 42.9376C53.398 42.9596 53.4135 42.9813 53.4295 43.0023L54.1262 43.9182C50.7198 48.4544 45.2529 51.4011 39.1004 51.4011Z" fill="black"/>
</svg>
