<svg width="82" height="82" viewBox="0 0 82 82" fill="none" xmlns="http://www.w3.org/2000/svg">
<path d="M74.3348 59.8216C76.1054 56.1491 76.9742 52.1072 76.869 48.0316C76.7638 43.9559 75.6876 39.9642 73.7299 36.388C71.7722 32.8118 68.9894 29.7544 65.6128 27.4696C62.2361 25.1849 58.363 23.7388 54.3153 23.2515C52.9684 20.12 51.0103 17.2887 48.5556 14.9235C46.1009 12.5582 43.1989 10.7064 40.0196 9.47667C36.8403 8.24691 33.4476 7.66385 30.0402 7.76163C26.6327 7.85942 23.279 8.63608 20.1755 10.0461C17.072 11.4562 14.281 13.4713 11.9659 15.9735C9.65091 18.4756 7.85838 21.4145 6.69332 24.6181C5.52827 27.8217 5.01411 31.2255 5.18095 34.6303C5.34779 38.035 6.19228 41.3723 7.66497 44.4466L5.3363 52.3615C5.07593 53.2451 5.05853 54.1825 5.2859 55.0751C5.51328 55.9678 5.97704 56.7827 6.62839 57.434C7.27974 58.0854 8.0946 58.5491 8.98725 58.7765C9.87989 59.0039 10.8173 58.9865 11.7009 58.7261L19.6158 56.3974C22.1573 57.6185 24.882 58.4138 27.6813 58.7517C29.0413 61.9382 31.0333 64.8158 33.5369 67.2106C36.0406 69.6054 39.0038 71.4676 42.2476 72.6847C45.4913 73.9018 48.9482 74.4484 52.4092 74.2916C55.8702 74.1348 59.2635 73.2778 62.3839 71.7724L70.2988 74.1011C71.1821 74.3612 72.1191 74.3785 73.0114 74.1512C73.9036 73.924 74.7182 73.4605 75.3694 72.8096C76.0206 72.1587 76.4845 71.3444 76.7122 70.4522C76.9399 69.5601 76.9231 68.6231 76.6634 67.7397L74.3348 59.8216ZM69.1297 60.2924L71.7499 69.1875L62.858 66.5705C62.2156 66.3844 61.5259 66.4568 60.9361 66.7723C56.2174 69.292 50.7011 69.869 45.5631 68.3803C40.4251 66.8916 36.0717 63.455 33.4309 58.803C36.9395 58.4368 40.3346 57.3494 43.4032 55.6092C46.4718 53.8689 49.1476 51.5133 51.2628 48.6901C53.378 45.8669 54.887 42.6371 55.695 39.2032C56.5031 35.7693 56.5928 32.2055 55.9585 28.7353C59.0155 29.4558 61.8661 30.8692 64.2902 32.8663C66.7143 34.8634 68.6471 37.3908 69.9394 40.2534C71.2317 43.1161 71.849 46.2373 71.7436 49.3764C71.6382 52.5154 70.8129 55.5883 69.3315 58.3577C69.0126 58.951 68.9401 59.6461 69.1297 60.2924Z" fill="white"/>
</svg>
