<svg width="48" height="48" viewBox="0 0 48 48" fill="none" xmlns="http://www.w3.org/2000/svg">
<path d="M24 4.5C20.1433 4.5 16.3731 5.64366 13.1664 7.78634C9.95963 9.92903 7.46027 12.9745 5.98436 16.5377C4.50845 20.1008 4.12228 24.0216 4.8747 27.8043C5.62711 31.5869 7.4843 35.0615 10.2114 37.7886C12.9386 40.5157 16.4131 42.3729 20.1957 43.1253C23.9784 43.8777 27.8992 43.4916 31.4623 42.0156C35.0255 40.5397 38.071 38.0404 40.2137 34.8336C42.3564 31.6269 43.5 27.8567 43.5 24C43.4945 18.83 41.4383 13.8732 37.7826 10.2174C34.1268 6.56167 29.1701 4.50546 24 4.5ZM24 40.5C20.7366 40.5 17.5465 39.5323 14.8331 37.7192C12.1197 35.9062 10.0048 33.3293 8.756 30.3143C7.50715 27.2993 7.1804 23.9817 7.81705 20.781C8.45371 17.5803 10.0252 14.6403 12.3327 12.3327C14.6403 10.0252 17.5803 8.4537 20.781 7.81704C23.9817 7.18039 27.2993 7.50714 30.3143 8.75599C33.3293 10.0048 35.9062 12.1197 37.7193 14.8331C39.5323 17.5465 40.5 20.7366 40.5 24C40.495 28.3745 38.7551 32.5685 35.6618 35.6618C32.5685 38.7551 28.3746 40.495 24 40.5ZM18 24C18 25.2593 18.3962 26.4867 19.1326 27.5083C19.8689 28.5299 20.908 29.2939 22.1026 29.6921C23.2973 30.0903 24.587 30.1026 25.789 29.7271C26.991 29.3516 28.0444 28.6074 28.8 27.6C29.039 27.2817 29.3945 27.0714 29.7885 27.0154C30.1825 26.9593 30.5827 27.062 30.9009 27.3009C31.2192 27.5399 31.4295 27.8955 31.4856 28.2895C31.5417 28.6835 31.439 29.0836 31.2 29.4019C30.0664 30.9126 28.4862 32.0283 26.6832 32.5911C24.8803 33.154 22.946 33.1353 21.1543 32.5378C19.3625 31.9403 17.8042 30.7942 16.6999 29.2619C15.5956 27.7296 15.0014 25.8887 15.0014 24C15.0014 22.1113 15.5956 20.2704 16.6999 18.7381C17.8042 17.2058 19.3625 16.0597 21.1543 15.4622C22.946 14.8647 24.8803 14.846 26.6832 15.4089C28.4862 15.9717 30.0664 17.0874 31.2 18.5981C31.3183 18.7557 31.4044 18.9351 31.4534 19.1259C31.5024 19.3168 31.5134 19.5154 31.4856 19.7105C31.4578 19.9056 31.3919 20.0933 31.2916 20.2629C31.1913 20.4326 31.0585 20.5807 30.9009 20.6991C30.7434 20.8174 30.564 20.9035 30.3731 20.9525C30.1823 21.0015 29.9836 21.0124 29.7885 20.9846C29.5934 20.9569 29.4057 20.891 29.2361 20.7906C29.0665 20.6903 28.9183 20.5576 28.8 20.4C28.0444 19.3926 26.991 18.6484 25.789 18.2729C24.587 17.8974 23.2973 17.9097 22.1026 18.3079C20.908 18.7061 19.8689 19.4701 19.1326 20.4917C18.3962 21.5133 18 22.7407 18 24Z" fill="#282828"/>
</svg>
