<svg width="128" height="128" viewBox="0 0 128 128" fill="none" xmlns="http://www.w3.org/2000/svg">
<path d="M119.775 113.325C119.5 114.107 118.99 114.785 118.313 115.264C117.637 115.743 116.829 116 116 116H12C11.1706 116.001 10.3616 115.744 9.68482 115.264C9.00805 114.785 8.49701 114.107 8.22243 113.324C7.94784 112.542 7.92329 111.693 8.15217 110.896C8.38105 110.099 8.85204 109.393 9.49996 108.875C10.315 108.225 28.765 93.745 58.645 92.15C57.0909 85.9562 56.5356 79.554 57 73.185C57.865 62.33 62.455 47.87 78.475 36.945C76.0188 36.3484 73.5024 36.0347 70.975 36.01H70.14C60.64 36.32 54.67 41.865 51.89 52.97C51.6732 53.8371 51.1724 54.6065 50.4674 55.1557C49.7623 55.7049 48.8937 56.0021 48 56C47.6628 56.0042 47.3266 55.9639 47 55.88C45.971 55.6226 45.0864 54.9671 44.5407 54.0576C43.995 53.1481 43.8329 52.0591 44.09 51.03C48.715 32.555 60.645 28.32 69.84 28.03C73.4919 27.9503 77.1379 28.3623 80.68 29.255C78.77 26.09 75.9699 22.79 72.075 21.13C67.075 19.01 60.99 19.935 53.92 23.885C53.4603 24.1411 52.9548 24.3042 52.4321 24.3649C51.9095 24.4255 51.38 24.3827 50.8739 24.2388C50.3679 24.0948 49.8951 23.8526 49.4826 23.526C49.0701 23.1994 48.726 22.7947 48.47 22.335C48.2139 21.8754 48.0508 21.3699 47.9901 20.8472C47.9295 20.3246 47.9723 19.7951 48.1162 19.289C48.2602 18.7829 48.5024 18.3102 48.829 17.8977C49.1556 17.4852 49.5603 17.1411 50.02 16.885C59.39 11.66 67.88 10.615 75.26 13.785C81.505 16.465 85.625 21.675 88.2 26.285C91.285 21.465 95.135 18.2 99.39 16.815C105.32 14.88 111.71 16.455 118.39 21.5C119.199 22.1522 119.722 23.0935 119.85 24.1248C119.977 25.1561 119.698 26.1964 119.071 27.0255C118.445 27.8546 117.52 28.4074 116.494 28.5669C115.467 28.7264 114.418 28.48 113.57 27.88C109.115 24.515 105.185 23.35 101.9 24.415C98.25 25.59 95.465 29.415 93.71 32.72C97.3182 33.4464 100.79 34.7337 104 36.535C111.305 40.71 120 49.56 120 68.005C120 69.0659 119.579 70.0833 118.828 70.8335C118.078 71.5836 117.061 72.005 116 72.005C114.939 72.005 113.922 71.5836 113.172 70.8335C112.421 70.0833 112 69.0659 112 68.005C112 56.275 107.97 48.005 100 43.505C99.0722 42.9781 98.1119 42.5105 97.125 42.105C99.6435 47.2252 100.527 52.996 99.655 58.635C99.0263 62.807 97.5161 66.7972 95.225 70.34C94.6118 71.2 93.6834 71.7825 92.6424 71.9605C91.6013 72.1385 90.5322 71.8976 89.6681 71.2903C88.804 70.683 88.2152 69.7586 88.0301 68.7188C87.8449 67.679 88.0786 66.6082 88.68 65.74C89.055 65.195 96.845 53.55 87.05 41.055C73.55 48.66 66.105 59.68 64.97 73.85C64.5278 79.9888 65.1762 86.1574 66.885 92.07C98.21 92.975 117.645 108.235 118.485 108.9C119.13 109.414 119.6 110.116 119.831 110.908C120.062 111.7 120.043 112.544 119.775 113.325ZM26 84C28.7689 84 31.4757 83.179 33.7779 81.6406C36.0802 80.1023 37.8746 77.9158 38.9343 75.3576C39.9939 72.7994 40.2711 69.9845 39.731 67.2688C39.1908 64.553 37.8574 62.0585 35.8995 60.1005C33.9415 58.1426 31.447 56.8092 28.7312 56.269C26.0155 55.7289 23.2006 56.0061 20.6424 57.0657C18.0842 58.1254 15.8977 59.9198 14.3594 62.2221C12.821 64.5243 12 67.2311 12 70C12 73.7131 13.475 77.274 16.1005 79.8995C18.726 82.5251 22.2869 84 26 84Z" fill="#FF7500"/>
</svg>
