<svg width="48" height="48" viewBox="0 0 48 48" fill="none" xmlns="http://www.w3.org/2000/svg">
<path d="M43.5 23.9997C43.4939 28.7656 41.7452 33.3648 38.5835 36.9309C35.4218 40.497 31.0652 42.784 26.3344 43.361C26.229 43.3729 26.1223 43.3623 26.0214 43.33C25.9204 43.2977 25.8274 43.2444 25.7486 43.1735C25.6697 43.1026 25.6068 43.0159 25.564 42.9189C25.5211 42.8219 25.4993 42.717 25.5 42.611V28.4997H30C30.2056 28.5002 30.4091 28.4583 30.5979 28.3768C30.7867 28.2953 30.9567 28.1758 31.0974 28.0258C31.238 27.8758 31.3464 27.6985 31.4156 27.5049C31.4849 27.3113 31.5136 27.1055 31.5 26.9003C31.4668 26.5146 31.2889 26.1557 31.0019 25.8959C30.7149 25.636 30.3402 25.4945 29.9531 25.4997H25.5V20.9997C25.5 20.2041 25.816 19.441 26.3787 18.8784C26.9413 18.3158 27.7043 17.9997 28.5 17.9997H31.5C31.7056 18.0002 31.9091 17.9583 32.0979 17.8768C32.2867 17.7953 32.4567 17.6758 32.5974 17.5258C32.738 17.3758 32.8464 17.1985 32.9156 17.0049C32.9849 16.8113 33.0136 16.6055 33 16.4003C32.9668 16.014 32.7883 15.6545 32.5005 15.3946C32.2128 15.1347 31.8371 14.9935 31.4494 14.9997H28.5C26.9087 14.9997 25.3826 15.6318 24.2573 16.7571C23.1321 17.8823 22.5 19.4084 22.5 20.9997V25.4997H18C17.7943 25.4993 17.5908 25.5411 17.402 25.6226C17.2133 25.7041 17.0432 25.8236 16.9026 25.9736C16.7619 26.1236 16.6536 26.3009 16.5843 26.4945C16.5151 26.6881 16.4864 26.8939 16.5 27.0991C16.5332 27.4855 16.7116 27.8449 16.9994 28.1048C17.2872 28.3648 17.6629 28.5059 18.0506 28.4997H22.5V42.6147C22.5006 42.7205 22.4789 42.8253 22.4361 42.9221C22.3934 43.019 22.3306 43.1056 22.252 43.1765C22.1734 43.2473 22.0806 43.3007 21.9799 43.3332C21.8791 43.3656 21.7727 43.3764 21.6675 43.3647C16.81 42.7732 12.3517 40.3795 9.17486 36.6576C5.99807 32.9356 4.33438 28.1567 4.5131 23.2666C4.8881 13.1416 13.0894 4.91033 23.2219 4.51658C25.8451 4.41497 28.462 4.84349 30.9159 5.77652C33.3697 6.70954 35.6102 8.1279 37.5033 9.94676C39.3963 11.7656 40.9031 13.9476 41.9335 16.3622C42.9639 18.7768 43.4967 21.3745 43.5 23.9997Z" fill="#0E2F3C"/>
</svg>
