<svg width="288" height="154" viewBox="0 0 288 154" fill="none" xmlns="http://www.w3.org/2000/svg">
<g clip-path="url(#clip0_0_905)">
<path d="M287.33 20.6271C288.68 23.0176 287.936 26.1117 285.658 27.5286C282.379 29.572 276.207 30.6708 272.056 30.6708C263.881 30.6708 259.813 25.5333 257.663 22.1501C256.001 23.9429 253.071 27.7406 248.46 35.6734C243.942 43.452 239.597 52.1173 237.255 57.1777C236.438 58.9416 234.739 60.0115 232.939 60.0115C232.534 60.0115 232.13 59.9537 231.726 59.8477C229.513 59.2404 228.016 57.0813 228.144 54.6909C229.09 37.3795 234.941 19.5958 238.44 8.97377C239.138 6.84359 239.744 5.00256 240.213 3.48926C241.021 0.838579 243.721 -0.616888 246.247 0.231331C248.773 1.07955 250.16 3.91337 249.351 6.56406C248.855 8.18339 248.231 10.0726 247.514 12.2606C246.348 15.8174 244.897 20.2127 243.473 25.1189C250.95 13.2341 255 10.6606 258.646 10.6606C262.063 10.6606 263.771 13.4655 265.011 15.5186C266.921 18.6801 268.354 20.5982 272.065 20.5982C275.775 20.5982 279.66 19.5572 280.763 18.8632C283.04 17.4463 285.989 18.2271 287.339 20.6175L287.33 20.6271Z" fill="#E09F3E"/>
<path d="M165.91 20.6272C167.26 18.2367 170.208 17.4463 172.486 18.8729C173.597 19.5669 177.629 20.6079 181.184 20.6079C184.738 20.6079 186.327 18.6897 188.237 15.5282C189.477 13.4751 191.176 10.6702 194.602 10.6702C198.239 10.6702 202.299 13.2341 209.775 25.1285C208.352 20.232 206.9 15.827 205.734 12.2703C205.018 10.0822 204.393 8.19303 203.897 6.5737C203.089 3.92301 204.476 1.08919 207.001 0.240971C209.527 -0.607248 212.227 0.848219 213.036 3.4989C213.495 5.01221 214.101 6.85323 214.808 8.98341C218.308 19.6054 224.158 37.3891 225.104 54.7005C225.233 57.1006 223.736 59.2597 221.522 59.8573C221.118 59.9633 220.714 60.0212 220.31 60.0212C218.51 60.0212 216.811 58.9512 215.993 57.1873C213.651 52.1269 209.307 43.4616 204.788 35.683C200.177 27.7503 197.238 23.9526 195.585 22.1597C193.427 25.543 189.367 30.6805 181.193 30.6805C177.051 30.6805 170.869 29.5816 167.591 27.5382C165.313 26.1213 164.56 23.0272 165.919 20.6368L165.91 20.6272Z" fill="#E09F3E"/>
<path d="M36.1779 51.4137C37.0046 52.8788 36.5453 54.7583 35.1493 55.6355C33.147 56.8885 29.3722 57.5536 26.8373 57.5536C21.8409 57.5536 19.361 54.4113 18.0385 52.3486C17.0282 53.4475 15.228 55.7704 12.4083 60.6188C9.64378 65.3707 6.98944 70.6721 5.55665 73.7662C5.06069 74.8457 4.02283 75.5012 2.92069 75.5012C2.67271 75.5012 2.42472 75.4722 2.17674 75.4048C0.826611 75.0385 -0.0918445 73.718 -0.00918356 72.2529C0.569443 61.6694 4.14223 50.8064 6.28223 44.3098C6.71391 43.0086 7.08129 41.8808 7.36601 40.9555C7.86198 39.3362 9.5152 38.4494 11.0582 38.9603C12.6012 39.4808 13.4462 41.2157 12.9594 42.8351C12.6563 43.8279 12.2797 44.9749 11.8389 46.3147C11.1225 48.4931 10.2408 51.1727 9.36824 54.1704C13.933 46.9027 16.4128 45.3315 18.6355 45.3315C20.7295 45.3315 21.7674 47.0473 22.5205 48.3003C23.687 50.2281 24.5595 51.404 26.8281 51.404C29.0967 51.404 31.4663 50.7679 32.1459 50.3437C33.542 49.4762 35.3422 49.9582 36.1688 51.4233L36.1779 51.4137Z" fill="#0E2F3C"/>
<path d="M70.4271 53.8716C71.1711 55.3849 70.6017 57.2355 69.1597 58.0163C66.3492 59.5296 58.175 61.0814 52.655 61.1682C52.2417 61.9971 51.8101 62.8164 51.3417 63.6164C49.1833 67.3467 44.7196 73.6119 39.0619 73.6119C35.0391 73.6119 30.3458 70.489 30.3458 61.6983C30.3458 51.6257 35.4156 43.7315 38.0241 42.4977C39.0986 41.9869 40.311 42.2182 41.1468 42.9797C43.0572 40.3483 45.9136 38.6904 48.0628 38.6904C53.0683 38.6904 56.3013 42.5074 56.3013 48.4063C56.3013 50.2474 55.8972 52.4836 55.1716 54.874C59.9568 54.4595 65.2103 53.2258 66.487 52.5414C67.9289 51.7607 69.6924 52.3583 70.4363 53.8716H70.4271ZM46.3269 60.426C46.4371 60.2332 46.5473 60.0501 46.6483 59.8573C45.8034 59.4814 44.9859 59.0284 44.2512 58.5175C41.2386 56.4548 39.4477 53.5438 39.117 50.2474C37.7944 52.5992 36.2147 56.5512 36.2147 61.6887C36.2147 63.4237 36.4902 67.4527 39.0619 67.4527C41.009 67.4527 43.8654 64.696 46.3269 60.426ZM49.1465 54.2957C50.0007 51.8763 50.4324 49.7558 50.4324 48.4063C50.4324 44.946 48.9812 44.8496 48.1362 44.8496C47.2729 45.0424 44.9216 46.9316 44.9216 49.1485C44.9216 51.751 47.0708 53.4282 49.1465 54.2957Z" fill="#0E2F3C"/>
<path d="M104.566 53.8716C105.31 55.3849 104.741 57.2355 103.299 58.0163C100.488 59.5296 92.3139 61.0814 86.794 61.1682C86.3807 61.9971 85.949 62.8164 85.4806 63.6164C83.3223 67.3467 78.8586 73.6119 73.2009 73.6119C69.178 73.6119 64.4847 70.489 64.4847 61.6983C64.4847 51.6257 69.5546 43.7315 72.163 42.4977C73.2376 41.9869 74.45 42.2182 75.2858 42.9797C77.1962 40.3483 80.0526 38.6904 82.2017 38.6904C87.2073 38.6904 90.4403 42.5074 90.4403 48.4063C90.4403 50.2474 90.0362 52.4836 89.3106 54.874C94.0957 54.4595 99.3493 53.2258 100.626 52.5414C102.068 51.7607 103.831 52.3583 104.575 53.8716H104.566ZM80.4659 60.426C80.5761 60.2332 80.6863 60.0501 80.7873 59.8573C79.9423 59.4814 79.1249 59.0284 78.3902 58.5175C75.3776 56.4548 73.5866 53.5438 73.256 50.2474C71.9334 52.5992 70.3537 56.5512 70.3537 61.6887C70.3537 63.4237 70.6292 67.4527 73.2009 67.4527C75.148 67.4527 78.0044 64.696 80.4659 60.426ZM83.2855 54.2957C84.1397 51.8763 84.5714 49.7558 84.5714 48.4063C84.5714 44.946 83.1202 44.8496 82.2752 44.8496C81.4119 45.0424 79.0606 46.9316 79.0606 49.1485C79.0606 51.751 81.2098 53.4282 83.2855 54.2957Z" fill="#0E2F3C"/>
<path d="M140.129 22.7959C141.745 22.8826 142.985 24.3285 142.902 26.0249C142.82 27.7213 141.442 29.0226 139.826 28.9358C138.448 28.8876 125.755 29.1768 112.795 29.8997C103.905 53.9487 100.139 75.3084 98.5778 90.0269C98.4125 91.598 97.145 92.7643 95.6663 92.7643C95.5561 92.7643 95.4459 92.7643 95.3356 92.7451C93.7283 92.5523 92.5711 91.039 92.7456 89.3425C94.2978 74.7879 97.9349 53.8812 106.366 30.2949C98.2931 30.8443 90.8444 31.5769 86.8491 32.5119C86.6379 32.5601 86.4174 32.589 86.2062 32.589C84.8652 32.589 83.6529 31.6154 83.3498 30.1793C83.0008 28.5214 83.9927 26.8731 85.5725 26.5069C90.4403 25.3695 99.4319 24.5405 108.718 23.9622C110.316 19.8271 112.061 15.6246 113.98 11.3642C114.302 10.6413 114.559 10.0726 114.66 9.82199C115.284 8.2605 117.011 7.51831 118.499 8.18339C119.987 8.84847 120.694 10.6509 120.06 12.2124C119.913 12.5787 119.656 13.1474 119.28 13.9956C117.829 17.2343 116.469 20.4344 115.202 23.5959C127.858 22.9501 139.421 22.7477 140.11 22.7863L140.129 22.7959Z" fill="#0E2F3C"/>
<path d="M155.155 53.9776C155.54 55.6258 154.567 57.2934 152.996 57.6885C148.955 58.7199 142.287 61.0621 135.794 64.108C136.583 65.2069 137.061 66.5177 137.061 68.1274C137.061 75.3566 125.571 80.87 119.822 80.87C115.45 80.87 113.898 78.1036 113.898 75.7228C113.898 71.8866 117.131 67.925 123.762 63.7128C119.932 61.8236 116.065 59.2693 116.065 54.2957C116.065 47.2689 125.397 39.4518 131.725 39.4518C137.428 39.4518 138.632 42.4399 138.632 44.9556C138.632 49.0714 135.279 53.4282 135.243 53.4667C134.223 54.7873 132.368 54.98 131.119 53.9005C129.86 52.8306 129.677 50.8835 130.705 49.5726C131.385 48.6955 132.359 46.9027 132.671 45.6496C132.432 45.6207 132.129 45.6111 131.734 45.6111C128.161 45.6111 121.934 51.1341 121.934 54.2957C121.934 56.1753 125.286 57.7175 128.244 59.0765C128.914 59.385 129.594 59.7031 130.274 60.0308C138.053 56.0596 146.494 53.0137 151.628 51.7125C153.198 51.3076 154.787 52.3293 155.164 53.9776H155.155ZM127.27 72.1372C130.136 70.4118 131.201 68.7636 131.201 68.1274C131.201 67.7901 130.797 67.3852 130.191 66.9611C123.743 70.5371 121.08 73.2264 120.171 74.6915C121.815 74.5758 124.653 73.6987 127.28 72.1276L127.27 72.1372Z" fill="#0E2F3C"/>
<path d="M88.9983 112.64C89.8249 114.105 89.3657 115.984 87.9696 116.861C85.9674 118.115 82.1926 118.78 79.6576 118.78C74.6612 118.78 72.1814 115.637 70.8588 113.575C69.8485 114.673 68.0483 116.996 65.2287 121.845C62.4641 126.597 59.8098 131.898 58.377 134.992C57.881 136.072 56.8432 136.727 55.741 136.727C55.4931 136.727 55.2451 136.698 54.9971 136.631C53.647 136.265 52.7285 134.944 52.8112 133.479C53.3898 122.895 56.9626 112.032 59.1026 105.536C59.5343 104.235 59.9016 103.107 60.1864 102.182C60.6823 100.562 62.3356 99.6754 63.8786 100.186C65.4216 100.707 66.2665 102.442 65.7798 104.061C65.4767 105.054 65.1001 106.201 64.6592 107.541C63.9429 109.719 63.0611 112.399 62.1886 115.396C66.7533 108.129 69.2332 106.558 71.4558 106.558C73.5499 106.558 74.5877 108.273 75.3409 109.526C76.5073 111.454 77.3799 112.63 79.6484 112.63C81.917 112.63 84.2866 111.994 84.9663 111.57C86.3623 110.702 88.1625 111.184 88.9891 112.649L88.9983 112.64Z" fill="#0E2F3C"/>
<path d="M123.248 115.098C123.991 116.611 123.422 118.462 121.98 119.242C119.17 120.756 110.995 122.307 105.475 122.394C105.062 123.223 104.63 124.042 104.162 124.842C102.004 128.573 97.5399 134.838 91.8823 134.838C87.8594 134.838 83.1661 131.715 83.1661 122.924C83.1661 112.852 88.236 104.958 90.8444 103.724C91.919 103.213 93.1314 103.444 93.9671 104.206C95.8775 101.574 98.7339 99.9164 100.883 99.9164C105.889 99.9164 109.122 103.733 109.122 109.632C109.122 111.473 108.718 113.71 107.992 116.1C112.777 115.686 118.031 114.452 119.307 113.767C120.749 112.987 122.513 113.584 123.257 115.098H123.248ZM99.1472 121.652C99.2575 121.459 99.3677 121.276 99.4687 121.083C98.6237 120.707 97.8063 120.254 97.0715 119.744C94.059 117.681 92.268 114.77 91.9374 111.473C90.6148 113.825 89.035 117.777 89.035 122.915C89.035 124.65 89.3106 128.679 91.8823 128.679C93.8294 128.679 96.6858 125.922 99.1472 121.652ZM101.967 115.522C102.821 113.102 103.253 110.982 103.253 109.632C103.253 106.172 101.802 106.076 100.957 106.076C100.093 106.268 97.742 108.158 97.742 110.375C97.742 112.977 99.8912 114.654 101.967 115.522Z" fill="#0E2F3C"/>
<path d="M162.282 114.837C163.265 116.187 163.007 118.124 161.722 119.146L161.409 119.397C154.53 124.881 147.513 129.951 142.746 129.951C140.652 129.951 138.815 129.161 137.456 127.657C136.143 126.211 135.417 124.283 135.04 122.259C134.636 122.828 134.223 123.397 133.801 123.965C127.684 132.216 124.947 133.354 122.908 133.354C120.97 133.354 119.362 132.419 118.38 130.722C114.495 124.023 122.549 105.324 122.632 105.15C123.376 103.637 125.149 103.049 126.582 103.83C128.023 104.611 128.584 106.471 127.84 107.974C127.39 108.881 125.746 113.141 124.506 117.816C123.055 123.281 123.073 125.826 123.229 126.876C124.111 126.23 126.076 124.438 129.622 119.57C132.588 115.502 134.903 111.705 135.151 111.242C135.803 110.028 137.144 109.411 138.439 109.758C139.725 110.105 140.634 111.31 140.643 112.707C140.643 113.189 140.625 113.777 140.588 114.471C140.487 116.669 140.257 121.825 141.699 123.406C141.883 123.609 142.131 123.792 142.746 123.792C145.033 123.792 150.122 120.659 157.864 114.49L158.186 114.24C159.471 113.208 161.317 113.478 162.291 114.828L162.282 114.837Z" fill="#0E2F3C"/>
<path d="M198.102 84.0219C199.718 84.1087 200.958 85.5545 200.875 87.2509C200.793 88.9474 199.415 90.2486 197.799 90.1619C196.421 90.1137 183.728 90.4028 170.768 91.1257C161.878 115.175 158.112 136.534 156.551 151.253C156.385 152.824 155.118 153.99 153.639 153.99C153.529 153.99 153.419 153.99 153.309 153.971C151.701 153.778 150.544 152.265 150.719 150.569C152.271 136.014 155.908 115.107 164.339 91.5209C156.266 92.0704 148.817 92.8029 144.822 93.7379C144.611 93.7861 144.39 93.815 144.179 93.815C142.838 93.815 141.626 92.8415 141.323 91.4053C140.974 89.7474 141.966 88.0991 143.545 87.7329C148.413 86.5955 157.405 85.7665 166.69 85.1882C168.289 81.0531 170.034 76.8506 171.953 72.5902C172.275 71.8673 172.532 71.2986 172.633 71.048C173.257 69.4865 174.984 68.7443 176.472 69.4094C177.96 70.0745 178.667 71.877 178.033 73.4384C177.886 73.8047 177.629 74.3734 177.253 75.2216C175.802 78.4603 174.442 81.6604 173.175 84.8219C185.831 84.1761 197.394 83.9737 198.083 84.0123L198.102 84.0219Z" fill="#0E2F3C"/>
<path d="M213.66 114.693C214.873 115.82 214.983 117.768 213.917 119.04C212.981 120.148 197.725 133.373 186.474 133.373C180.431 133.373 174.332 129.614 174.332 121.218C174.332 111.425 182.506 104.919 187.907 104.919C192.802 104.919 195.025 108.649 195.025 112.11C195.025 114.924 192.563 117.7 191.81 118.49C189.588 120.813 186.979 122.086 184.481 122.086C182.901 122.086 181.67 121.96 180.201 121.623C180.412 126.664 184.637 127.214 186.474 127.214C194.611 127.214 207.846 116.707 209.564 114.924C210.639 113.69 212.466 113.584 213.669 114.702L213.66 114.693ZM187.898 111.069C186.345 111.069 183.498 112.726 181.726 115.666C182.699 115.878 183.471 115.927 184.472 115.927C186.4 115.927 188.798 113.151 189.147 111.965C189.11 111.29 188.788 111.059 187.898 111.059V111.069Z" fill="#0E2F3C"/>
<path d="M247.165 115.204C247.551 116.852 246.578 118.519 245.007 118.915C240.966 119.946 234.298 122.288 227.804 125.334C228.594 126.433 229.072 127.744 229.072 129.353C229.072 136.583 217.582 142.096 211.832 142.096C207.461 142.096 205.908 139.33 205.908 136.949C205.908 133.113 209.141 129.151 215.773 124.939C211.943 123.05 208.076 120.495 208.076 115.522C208.076 108.495 217.408 100.678 223.736 100.678C229.439 100.678 230.642 103.666 230.642 106.182C230.642 110.297 227.29 114.654 227.253 114.693C226.234 116.013 224.379 116.206 223.129 115.126C221.871 114.057 221.688 112.11 222.716 110.799C223.396 109.922 224.369 108.129 224.682 106.876C224.443 106.847 224.14 106.837 223.745 106.837C220.172 106.837 213.945 112.36 213.945 115.522C213.945 117.401 217.297 118.943 220.255 120.303C220.925 120.611 221.605 120.929 222.285 121.257C230.064 117.286 238.504 114.24 243.639 112.938C245.209 112.534 246.798 113.555 247.175 115.204H247.165ZM219.281 133.363C222.147 131.638 223.212 129.99 223.212 129.353C223.212 129.016 222.808 128.611 222.202 128.187C215.754 131.763 213.091 134.452 212.181 135.917C213.826 135.802 216.664 134.925 219.29 133.354L219.281 133.363Z" fill="#0E2F3C"/>
<path d="M64.1265 84.0026C64.898 84.4075 65.2103 85.3906 64.8246 86.1906C64.0071 87.8967 58.7168 94.1813 54.6848 94.1813C53.1051 94.1813 50.9926 93.5354 49.8721 90.451C49.2292 88.6871 49.0823 86.5858 48.9629 84.899C48.9445 84.6388 48.9261 84.3496 48.8986 84.0605C48.1638 84.7834 46.9514 86.1328 45.1053 88.6775C42.9745 91.6077 41.2754 94.3355 40.9264 95.0391C40.6508 95.5885 40.1089 95.9163 39.5487 95.9163C39.3834 95.9163 39.2089 95.8873 39.0435 95.8295C38.318 95.5693 37.8771 94.7885 38.0149 93.9981C38.9701 88.4076 42.1112 79.8097 42.7357 78.4314C43.1123 77.6217 44.0399 77.2747 44.8114 77.6699C45.5829 78.0651 45.9136 79.0386 45.537 79.8483C45.2798 80.417 44.4073 82.711 43.4889 85.5352C47.1351 80.7158 48.6322 80.0218 49.6976 80.0218C50.1936 80.0218 51.4059 80.2338 51.8009 82.2194C51.9386 82.8942 51.9938 83.7135 52.058 84.6677C52.352 88.8221 52.8387 90.9233 54.6756 90.9233C56.8983 90.9233 61.3895 86.0846 62.0233 84.7448C62.409 83.9352 63.3459 83.6074 64.1082 84.0123L64.1265 84.0026Z" fill="#E09F3E"/>
<path d="M241.743 154.467V138.627H243.519V154.467H241.743ZM236.871 140.235V138.627H248.391V140.235H236.871ZM251.25 154.467V138.627H254.082L259.626 152.691H259.746L265.29 138.627H268.026V154.467H266.298L266.442 140.427H266.274L260.586 154.467H258.69L253.026 140.403H252.858L252.978 154.467H251.25Z" fill="#0E2F3C"/>
</g>
<defs>
<clipPath id="clip0_0_905">
<rect width="144" height="77" fill="white" transform="scale(2)"/>
</clipPath>
</defs>
</svg>
