<svg width="48" height="48" viewBox="0 0 48 48" fill="none" xmlns="http://www.w3.org/2000/svg">
<path d="M43.5 40.4996C43.5 40.8974 43.342 41.279 43.0607 41.5603C42.7794 41.8416 42.3978 41.9996 42 41.9996H15C14.6022 41.9996 14.2206 41.8416 13.9393 41.5603C13.658 41.279 13.5 40.8974 13.5 40.4996C13.5 40.1018 13.658 39.7202 13.9393 39.4389C14.2206 39.1576 14.6022 38.9996 15 38.9996H42C42.3978 38.9996 42.7794 39.1576 43.0607 39.4389C43.342 39.7202 43.5 40.1018 43.5 40.4996ZM39 35.9996C39.3978 35.9996 39.7794 35.8416 40.0607 35.5603C40.342 35.279 40.5 34.8974 40.5 34.4996V27.8096C40.4961 26.1717 39.9579 24.5798 38.967 23.2756C37.9762 21.9715 36.5869 21.0262 35.01 20.5833L23.6025 17.3958L19.3837 7.34022C19.3011 7.14286 19.1772 6.96546 19.0204 6.81994C18.8635 6.67441 18.6774 6.56412 18.4744 6.49647L17.4487 6.15522C16.9979 6.00493 16.5178 5.9639 16.048 6.03549C15.5782 6.10709 15.1322 6.28926 14.7466 6.56702C14.361 6.84478 14.0469 7.21017 13.8301 7.63309C13.6134 8.05602 13.5003 8.52438 13.5 8.9996V14.5102L7.89937 12.9146L5.91 7.40772C5.83288 7.19458 5.70846 7.00168 5.54608 6.84353C5.38371 6.68537 5.1876 6.56608 4.9725 6.4946L3.94687 6.15335C3.496 6.00338 3.01595 5.96265 2.54626 6.03451C2.07657 6.10638 1.63066 6.28879 1.24526 6.56671C0.859858 6.84464 0.545987 7.21014 0.32949 7.63311C0.112994 8.05609 6.36736e-05 8.52444 0 8.9996V19.4471C0.00359328 21.0827 0.54018 22.6726 1.52847 23.9759C2.51676 25.2792 3.90289 26.2248 5.47687 26.6696L38.595 35.9433C38.7268 35.9805 38.8631 35.9994 39 35.9996Z" fill="#EB5757"/>
</svg>
