<svg width="128" height="128" viewBox="0 0 128 128" fill="none" xmlns="http://www.w3.org/2000/svg">
<path d="M112 108C112 109.061 111.579 110.078 110.828 110.828C110.078 111.579 109.061 112 108 112H36C34.9391 112 33.9217 111.579 33.1715 110.828C32.4214 110.078 32 109.061 32 108C32 106.939 32.4214 105.922 33.1715 105.172C33.9217 104.421 34.9391 104 36 104H108C109.061 104 110.078 104.421 110.828 105.172C111.579 105.922 112 106.939 112 108ZM104 48H73.66L50.83 25.17C50.4582 24.7987 50.0169 24.5042 49.5314 24.3035C49.0458 24.1027 48.5254 23.9996 48 24H44C42.7327 24.0007 41.4837 24.3024 40.3559 24.8804C39.2281 25.4583 38.2538 26.2959 37.5131 27.3242C36.7724 28.3524 36.2866 29.542 36.0957 30.7948C35.9048 32.0476 36.0142 33.3278 36.415 34.53L40.915 48H29.66L18.83 37.17C18.4582 36.7987 18.0169 36.5042 17.5314 36.3035C17.0458 36.1027 16.5254 35.9996 16 36H12C10.7533 36.0011 9.52421 36.2936 8.41065 36.854C7.2971 37.4145 6.32994 38.2274 5.58632 39.228C4.8427 40.2285 4.3432 41.389 4.12767 42.6169C3.91214 43.8448 3.98655 45.106 4.34496 46.3L11.38 69.745C12.5976 73.8754 15.1237 77.4987 18.5782 80.0695C22.0328 82.6404 26.2288 84.0197 30.535 84H120C121.061 84 122.078 83.5786 122.828 82.8284C123.579 82.0783 124 81.0609 124 80V68C124 62.6957 121.893 57.6086 118.142 53.8579C114.391 50.1071 109.304 48 104 48Z" fill="#27AE60"/>
</svg>
