<svg width="48" height="45" viewBox="0 0 48 45" fill="none" xmlns="http://www.w3.org/2000/svg">
<path d="M33.4967 37.5004C33.4967 37.8982 33.3386 38.2797 33.0573 38.561C32.776 38.8423 32.3945 39.0004 31.9967 39.0004H4.99668C4.59886 39.0004 4.21732 38.8423 3.93602 38.561C3.65472 38.2797 3.49668 37.8982 3.49668 37.5004C3.49668 37.1025 3.65472 36.721 3.93602 36.4397C4.21732 36.1584 4.59886 36.0004 4.99668 36.0004H31.9967C32.3945 36.0004 32.776 36.1584 33.0573 36.4397C33.3386 36.721 33.4967 37.1025 33.4967 37.5004ZM46.6798 13.2679L43.1848 8.78848L43.1623 8.76036C42.0321 7.36822 40.4386 6.42935 38.6731 6.11537C36.9077 5.80138 35.0882 6.13327 33.5473 7.05036L23.8779 12.8216L13.7642 9.10161C13.4262 8.97557 13.0541 8.97557 12.7161 9.10161L11.3717 9.61348L11.3117 9.63786C10.8518 9.83528 10.4485 10.1446 10.1387 10.5377C9.82895 10.9309 9.62244 11.3952 9.53801 11.8886C9.45358 12.3819 9.49393 12.8885 9.65536 13.3623C9.8168 13.836 10.0942 14.2619 10.4623 14.601L14.5592 18.5741L10.7773 20.8616L5.47856 19.0729C5.10354 18.9465 4.69378 18.9735 4.33856 19.1479L3.77606 19.4235C3.32603 19.6246 2.93248 19.9335 2.63022 20.3228C2.32796 20.7122 2.1263 21.1701 2.04307 21.6559C1.95985 22.1418 1.99761 22.6406 2.15304 23.1084C2.30846 23.5762 2.57675 23.9984 2.93418 24.3379L9.68418 30.951L9.70668 30.9735C11.0893 32.2803 12.9191 33.0094 14.8217 33.0116C16.1573 33.0094 17.4683 32.6522 18.6204 31.9766L46.2598 15.4766C46.4422 15.3676 46.5993 15.2211 46.7208 15.0468C46.8423 14.8725 46.9254 14.6744 46.9646 14.4656C47.0038 14.2568 46.9982 14.042 46.9481 13.8355C46.898 13.629 46.8047 13.4355 46.6742 13.2679H46.6798Z" fill="#27AE60"/>
</svg>
