<svg width="48" height="48" viewBox="0 0 48 48" fill="none" xmlns="http://www.w3.org/2000/svg">
<path d="M31.5001 21C31.5001 23.0767 30.8842 25.1067 29.7305 26.8335C28.5767 28.5602 26.9369 29.906 25.0182 30.7007C23.0996 31.4954 20.9884 31.7034 18.9516 31.2982C16.9148 30.8931 15.0439 29.893 13.5754 28.4246C12.107 26.9561 11.107 25.0852 10.7018 23.0484C10.2967 21.0116 10.5046 18.9004 11.2993 16.9818C12.094 15.0632 13.4399 13.4233 15.1666 12.2695C16.8933 11.1158 18.9234 10.5 21.0001 10.5C23.7848 10.5 26.4555 11.6062 28.4247 13.5754C30.3938 15.5445 31.5001 18.2152 31.5001 21ZM43.0613 43.0612C42.922 43.2007 42.7566 43.3113 42.5745 43.3868C42.3924 43.4623 42.1972 43.5012 42.0001 43.5012C41.8029 43.5012 41.6077 43.4623 41.4256 43.3868C41.2435 43.3113 41.0781 43.2007 40.9388 43.0612L31.5526 33.6731C28.2884 36.3887 24.103 37.7413 19.8669 37.4498C15.6309 37.1582 11.6703 35.2448 8.80897 32.1076C5.94767 28.9703 4.40593 24.8508 4.50445 20.6059C4.60296 16.361 6.33414 12.3174 9.3379 9.3163C12.3417 6.31519 16.3867 4.58758 20.6318 4.49282C24.8768 4.39806 28.9949 5.94344 32.1296 8.80751C35.2643 11.6716 37.1742 15.6339 37.462 19.8702C37.7499 24.1065 36.3935 28.2907 33.6751 31.5525L43.0613 40.9387C43.2008 41.078 43.3114 41.2435 43.3869 41.4256C43.4624 41.6077 43.5012 41.8028 43.5012 42C43.5012 42.1971 43.4624 42.3923 43.3869 42.5744C43.3114 42.7565 43.2008 42.9219 43.0613 43.0612ZM21.0001 34.5C23.6701 34.5 26.2802 33.7082 28.5003 32.2248C30.7203 30.7414 32.4506 28.633 33.4724 26.1662C34.4942 23.6994 34.7616 20.985 34.2407 18.3663C33.7198 15.7475 32.434 13.342 30.546 11.454C28.658 9.56602 26.2525 8.28027 23.6338 7.75937C21.015 7.23847 18.3006 7.50582 15.8338 8.5276C13.367 9.54938 11.2586 11.2797 9.77522 13.4998C8.29182 15.7198 7.50006 18.3299 7.50006 21C7.50403 24.5792 8.92762 28.0106 11.4585 30.5415C13.9894 33.0724 17.4209 34.496 21.0001 34.5Z" fill="white"/>
</svg>
