<svg width="80" height="80" viewBox="0 0 80 80" fill="none" xmlns="http://www.w3.org/2000/svg">
<path fill-rule="evenodd" clip-rule="evenodd" d="M40.8333 68.662C36.7 68.662 33.3332 65.5287 32.8665 61.5287H48.8C48.3333 65.5287 44.9667 68.662 40.8333 68.662ZM63.1333 44.6953V30.1288C63.1333 29.5622 63.1 28.9955 63.0667 28.4622C61.7667 28.8622 60.3667 29.0955 58.9333 29.0955C51.5333 29.0955 45.5 23.0955 45.5 15.6622C45.5 13.1622 46.1667 10.8288 47.4 8.82883C45.3333 8.16217 43.1333 7.82883 40.8333 7.82883C28.5332 7.82883 18.5332 17.8288 18.5332 30.1288V44.6953L13.1665 50.162V61.5287H27.8665C28.3665 68.2953 33.9333 73.662 40.8333 73.662C47.7333 73.662 53.3333 68.2953 53.8 61.5287H68.5V50.162L63.1333 44.6953Z" fill="#0E2F3C"/>
<path fill-rule="evenodd" clip-rule="evenodd" d="M58.9333 24.0955C60.0667 24.0955 61.1333 23.8622 62.1333 23.4622C65.2 22.1955 67.3667 19.1955 67.3667 15.6622C67.3667 11.0288 63.6 7.26217 58.9333 7.26217C56.0667 7.26217 53.5333 8.6955 52 10.8622C51.0667 12.2288 50.5 13.8622 50.5 15.6622C50.5 20.3288 54.3 24.0955 58.9333 24.0955Z" fill="#E09F3E"/>
</svg>
