<svg width="194" height="228" viewBox="0 0 194 228" fill="none" xmlns="http://www.w3.org/2000/svg">
<path d="M3.59253 201.781L33.1392 196.747L43.49 224.487L97.2386 132.722L57.3407 110.016L3.59253 201.781Z" fill="#FFFFB6"/>
<path d="M190.21 201.781L160.664 196.747L150.312 224.487L96.5637 132.722L136.462 110.016L190.21 201.781Z" fill="#FFFFB6"/>
<path d="M22.12 51.801L45.5322 44.8719L44.3147 20.806L68.312 25.3958L78.5801 3.5293L97.6644 18.5861L117.065 3.92696L126.866 26.0019L150.955 21.9095L149.225 45.9451L172.485 53.356L159.622 73.8461L176.723 91.064L155.673 103.314L162.698 126.393L138.283 127.597L133.623 151.251L111.438 141.134L96.1591 159.944L81.2848 140.822L58.8882 150.478L54.7329 126.733L30.3494 125.024L37.8645 102.095L17.0802 89.4119L34.544 72.552L22.12 51.801Z" fill="#E09F3E"/>
<path d="M96.9005 130.938C124.465 130.938 146.81 108.912 146.81 81.7415C146.81 54.571 124.465 32.5449 96.9005 32.5449C69.3362 32.5449 46.991 54.571 46.991 81.7415C46.991 108.912 69.3362 130.938 96.9005 130.938Z" fill="#365764"/>
<path d="M108.419 119.586C80.8547 119.586 58.5096 97.5598 58.5096 70.3896C58.5096 59.7022 61.9688 49.8123 67.8408 41.7441C55.2171 50.6713 46.9919 65.2597 46.9919 81.7428C46.9919 108.913 69.337 130.939 96.9014 130.939C113.623 130.939 128.423 122.832 137.48 110.388C129.295 116.176 119.261 119.586 108.419 119.586Z" fill="#5E7F8C"/>
<path d="M85.384 55.2513L89.2231 66.6045L100.741 74.173L108.419 89.3105L112.258 74.173V62.8198L123.776 51.4666L130.219 45.1152C121.384 37.3004 109.707 32.5449 96.9013 32.5449C86.0919 32.5449 76.0863 35.9333 67.9148 41.6894L73.8658 51.4666L85.384 55.2513Z" fill="#27AE60"/>
<path d="M145.695 71.3652L131.454 74.1729L127.615 93.0946L135.293 104.448L138.595 108.787C143.786 101.026 146.81 91.7329 146.81 81.7414C146.811 78.1812 146.424 74.7104 145.695 71.3652Z" fill="#27AE60"/>
<path d="M96.9014 100.664L85.3837 89.3104L66.1878 85.5261L54.6701 70.3887L47.7576 73.1144C47.2553 75.9159 46.9919 78.7984 46.9919 81.7419C46.9919 101.26 58.5227 118.123 75.2362 126.073L93.0618 112.016L96.9014 100.664Z" fill="#27AE60"/>
<path d="M58.8158 75.8366L54.6704 70.3887L47.7579 73.1144C47.2556 75.9159 46.9922 78.7984 46.9922 81.7419C46.9922 101.26 58.523 118.123 75.2365 126.073L88.5883 115.545C72.5024 108.672 60.8121 93.694 58.8158 75.8366Z" fill="#27AE60"/>
<path d="M193.327 200.011L176.089 170.582C175.095 168.885 172.894 168.303 171.173 169.283C169.452 170.263 168.862 172.433 169.855 174.129L183.251 197L161.276 193.256C159.56 192.964 157.885 193.92 157.285 195.528L149.587 216.158L110.165 148.853C110.111 148.762 110.052 148.675 109.993 148.59L112.484 145.522L132.111 154.473C134.2 155.426 136.717 154.151 137.155 151.929L141.279 131.003L144.999 130.82C145.012 131.397 163.545 163.355 163.545 163.355C164.603 165.161 167.09 165.674 168.798 164.437C170.255 163.38 170.683 161.35 169.779 159.806L152.581 130.445L162.878 129.938C165.172 129.825 166.806 127.547 166.145 125.375L159.93 104.957L178.552 94.1196C180.532 92.968 180.904 90.2026 179.295 88.5821L164.166 73.3507L175.546 55.2244C176.757 53.2948 175.777 50.6777 173.592 49.9817L153.014 43.425L154.545 22.1618C154.707 19.9032 152.61 18.0276 150.343 18.4145L129.032 22.0354L120.363 2.50626C119.442 0.432444 116.703 -0.267139 114.875 1.11288L97.7115 14.0812L80.8282 0.760638C79.0316 -0.658122 76.2772 -0.0133118 75.3126 2.04002L66.2286 21.3852L44.9993 17.3244C42.7414 16.8925 40.6045 18.7214 40.7193 20.984L41.7967 42.2743L21.0843 48.404C18.8851 49.0546 17.8488 51.6507 19.0193 53.6052L30.0102 71.9636L14.5604 86.8788C12.9173 88.4655 13.2304 91.238 15.1847 92.4301L33.5715 103.651L26.9229 123.934C26.215 126.093 27.8007 128.403 30.092 128.564L41.8388 129.387L31.104 147.716C30.2 149.259 30.6273 151.289 32.0852 152.346C33.7928 153.584 36.2803 153.07 37.3383 151.264C37.3383 151.264 49.4817 130.353 49.5472 129.928L51.6633 130.077L55.3397 151.083C55.73 153.314 58.2197 154.64 60.3285 153.731L80.1415 145.188L83.3622 149.329C83.3446 149.357 83.3242 149.384 83.3071 149.413L44.2128 216.158L36.5147 195.528C35.9148 193.92 34.2365 192.964 32.5238 193.256L10.5492 197L29.6786 164.339C30.6725 162.642 30.0825 160.472 28.3613 159.493C26.6387 158.512 24.4382 159.094 23.4447 160.791L0.472564 200.012C-1.02503 202.569 1.25954 205.78 4.20233 205.282L30.7936 200.752L40.1094 225.717C41.1412 228.481 45.1086 228.821 46.6044 226.266L88.1003 155.42L93.3001 162.105C94.7001 163.903 97.5277 163.934 98.9661 162.163L105.173 154.523L147.194 226.266C148.689 228.819 152.657 228.481 153.689 225.716L163.005 200.751L189.596 205.282C192.54 205.781 194.825 202.569 193.327 200.011ZM96.2203 154.194L84.1406 138.665C83.4421 137.768 82.3764 137.276 81.2827 137.276C80.798 137.276 80.3073 137.373 79.8416 137.573L61.654 145.415L58.2793 126.132C57.9983 124.524 56.6394 123.312 54.9882 123.197L35.1861 121.808L41.2894 103.188C41.7985 101.635 41.167 99.9393 39.7588 99.0803L22.88 88.7803L37.0632 75.0883C38.2463 73.9461 38.4862 72.156 37.6441 70.7506L27.554 53.8982L46.5669 48.2713C48.1531 47.8019 49.2097 46.3266 49.1266 44.6963L48.1377 25.1525L67.6254 28.8802C69.2495 29.1906 70.8808 28.3686 71.5775 26.8879L79.9166 9.12936L95.4148 21.3576C96.7073 22.3774 98.5401 22.3961 99.8534 21.4035L115.609 9.49897L123.568 27.4258C124.231 28.9207 125.844 29.7771 127.476 29.4997L147.04 26.1759L145.635 45.6952C145.518 47.3232 146.543 48.8199 148.118 49.3218L167.007 55.3406L156.56 71.9805C155.689 73.3685 155.891 75.1631 157.049 76.3299L170.937 90.3122L153.843 100.26C152.417 101.09 151.749 102.772 152.225 104.335L157.93 123.078L138.103 124.056C136.449 124.137 135.066 125.321 134.75 126.923L130.965 146.132L112.949 137.915C111.446 137.229 109.662 137.643 108.628 138.918L96.2203 154.194Z" fill="black"/>
<path d="M150.41 81.7385C150.41 52.6553 126.406 28.9941 96.901 28.9941C67.3963 28.9941 43.3923 52.6553 43.3923 81.7385C43.3923 110.822 67.3963 134.483 96.901 134.483C126.406 134.483 150.41 110.821 150.41 81.7385ZM138.209 102.36L131.436 92.3458L134.513 77.1843L142.784 75.5536C143.064 77.5766 143.211 79.6407 143.211 81.7381C143.211 89.1543 141.406 96.1626 138.209 102.36ZM124.862 45.3744L109.713 60.3075C109.038 60.9728 108.659 61.875 108.659 62.8159V73.7323L107.287 79.1415L103.959 72.582C103.679 72.0299 103.258 71.5587 102.736 71.2167L92.2469 64.3229L88.7977 54.1244C88.439 53.065 87.596 52.2336 86.5217 51.8804L76.2671 48.5108L72.7808 42.7827C79.8103 38.5376 88.0708 36.0879 96.901 36.0879C107.397 36.0897 117.087 39.5516 124.862 45.3744ZM50.5911 81.7385C50.5911 79.6749 50.733 77.6439 51.004 75.6525L53.4463 74.6897L63.3087 87.6514C63.84 88.3496 64.6139 88.8305 65.4821 89.0015L83.6092 92.5752L92.7827 101.619L89.9831 109.897L74.8187 121.855C60.3985 114.112 50.5911 99.0326 50.5911 81.7385ZM96.901 127.387C91.7951 127.387 86.8813 126.566 82.2841 125.055L95.3098 114.784C95.8515 114.357 96.2567 113.784 96.4758 113.135L100.315 101.782C100.746 100.507 100.409 99.1016 99.4453 98.1513L87.9276 86.7981C87.4248 86.3029 86.7851 85.965 86.088 85.8278L68.2406 82.3094L57.5487 68.2563C56.572 66.9729 54.8418 66.4955 53.3329 67.0914L52.9904 67.2267C55.7028 59.2735 60.5819 52.2937 66.9314 46.9678L70.7791 53.289C71.2214 54.0153 71.9121 54.5617 72.7275 54.8293L82.5376 58.0524L85.8075 67.7224C86.0604 68.4714 86.5596 69.1148 87.2255 69.5526L97.9477 76.5992L105.199 90.8937C105.876 92.2291 107.376 93.0156 108.878 92.825C110.331 92.6406 111.553 91.5692 111.909 90.1674L115.748 75.0299C115.819 74.7485 115.856 74.4595 115.856 74.1696V64.2859L130.249 50.0987C135.29 55.2599 139.112 61.5846 141.258 68.6183L130.747 70.6904C129.322 70.9714 128.209 72.0695 127.924 73.4736L124.084 92.3952C123.897 93.3175 124.09 94.2762 124.619 95.0591L132.297 106.412C132.334 106.467 132.373 106.521 132.412 106.573L134.139 108.842C125.697 120.084 112.148 127.387 96.901 127.387Z" fill="black"/>
</svg>
